<mxfile host="app.diagrams.net" modified="2021-04-29T01:22:27.476Z" agent="5.0 (Macintosh; Intel Mac OS X 10_15_7) AppleWebKit/537.36 (KHTML, like Gecko) Chrome/90.0.4430.93 Safari/537.36" etag="pCCJxpQKjsoGfEB0RdK9" version="14.6.6" type="github" pages="2">
  <diagram id="nWX0eajQFs54x2j12n2J" name="第 1 页">
    <mxGraphModel dx="1426" dy="711" grid="1" gridSize="10" guides="1" tooltips="1" connect="1" arrows="1" fold="1" page="1" pageScale="1" pageWidth="800" pageHeight="400" math="0" shadow="0">
      <root>
        <mxCell id="0" />
        <mxCell id="1" parent="0" />
        <mxCell id="Q3bc8F0HaG0GF0_WxjeC-1" value="MCCS" style="rounded=0;whiteSpace=wrap;html=1;fillColor=#ffe6cc;strokeColor=#d79b00;" parent="1" vertex="1">
          <mxGeometry x="490" y="110" width="200" height="110" as="geometry" />
        </mxCell>
        <mxCell id="Q3bc8F0HaG0GF0_WxjeC-2" value="其他平台" style="rounded=0;whiteSpace=wrap;html=1;fillColor=#60a917;strokeColor=#2D7600;fontColor=#ffffff;" parent="1" vertex="1">
          <mxGeometry x="130" y="110" width="200" height="110" as="geometry" />
        </mxCell>
        <mxCell id="dejuXrAs5js8NBhIehqD-9" value="" style="group" parent="1" vertex="1" connectable="0">
          <mxGeometry x="490" y="310" width="200" height="400" as="geometry" />
        </mxCell>
        <mxCell id="dejuXrAs5js8NBhIehqD-3" value="" style="html=1;verticalLabelPosition=bottom;labelBackgroundColor=#ffffff;verticalAlign=top;shadow=0;dashed=0;strokeWidth=1;shape=mxgraph.ios7.misc.iphone;strokeColor=#c0c0c0;" parent="dejuXrAs5js8NBhIehqD-9" vertex="1">
          <mxGeometry width="200" height="400" as="geometry" />
        </mxCell>
        <mxCell id="dejuXrAs5js8NBhIehqD-4" value="" style="verticalLabelPosition=bottom;verticalAlign=top;html=1;shadow=0;dashed=0;strokeWidth=1;shape=mxgraph.ios.iBgMap;strokeColor=#18211b;strokeColor2=#008cff;fillColor2=#96D1FF;" parent="dejuXrAs5js8NBhIehqD-9" vertex="1">
          <mxGeometry x="13" y="60" width="175" height="280" as="geometry" />
        </mxCell>
        <mxCell id="dejuXrAs5js8NBhIehqD-5" value="" style="html=1;strokeWidth=1;shadow=0;dashed=0;shape=mxgraph.ios7ui.appBar;fillColor=#ffffff;gradientColor=none;" parent="dejuXrAs5js8NBhIehqD-9" vertex="1">
          <mxGeometry x="13" y="60" width="175" height="15" as="geometry" />
        </mxCell>
        <mxCell id="dejuXrAs5js8NBhIehqD-6" value="CARRIER" style="shape=rect;align=left;fontSize=8;spacingLeft=24;fontSize=4;fontColor=#aaaaaa;strokeColor=none;fillColor=none;spacingTop=4;" parent="dejuXrAs5js8NBhIehqD-5" vertex="1">
          <mxGeometry y="0.5" width="50" height="13" relative="1" as="geometry">
            <mxPoint y="-6.5" as="offset" />
          </mxGeometry>
        </mxCell>
        <mxCell id="dejuXrAs5js8NBhIehqD-7" value="11:55PM" style="shape=rect;fontSize=8;fontColor=#aaaaaa;strokeColor=none;fillColor=none;spacingTop=4;" parent="dejuXrAs5js8NBhIehqD-5" vertex="1">
          <mxGeometry x="0.5" y="0.5" width="50" height="13" relative="1" as="geometry">
            <mxPoint x="-30" y="-6.5" as="offset" />
          </mxGeometry>
        </mxCell>
        <mxCell id="dejuXrAs5js8NBhIehqD-8" value="98%" style="shape=rect;align=right;fontSize=8;spacingRight=19;fontSize=6;fontColor=#aaaaaa;strokeColor=none;fillColor=none;spacingTop=4;" parent="dejuXrAs5js8NBhIehqD-5" vertex="1">
          <mxGeometry x="1" y="0.5" width="45" height="13" relative="1" as="geometry">
            <mxPoint x="-45" y="-6.5" as="offset" />
          </mxGeometry>
        </mxCell>
        <mxCell id="dejuXrAs5js8NBhIehqD-10" value="" style="group" parent="1" vertex="1" connectable="0">
          <mxGeometry x="130" y="310" width="200" height="400" as="geometry" />
        </mxCell>
        <mxCell id="dejuXrAs5js8NBhIehqD-1" value="" style="html=1;verticalLabelPosition=bottom;labelBackgroundColor=#ffffff;verticalAlign=top;shadow=0;dashed=0;strokeWidth=1;shape=mxgraph.ios7.misc.iphone;strokeColor=#c0c0c0;" parent="dejuXrAs5js8NBhIehqD-10" vertex="1">
          <mxGeometry width="200" height="400" as="geometry" />
        </mxCell>
        <mxCell id="dejuXrAs5js8NBhIehqD-2" value="" style="verticalLabelPosition=bottom;verticalAlign=top;html=1;shadow=0;dashed=0;strokeWidth=1;shape=mxgraph.ios.iIconGrid;gridSize=3,3;" parent="dejuXrAs5js8NBhIehqD-10" vertex="1">
          <mxGeometry x="25" y="90" width="150" height="150" as="geometry" />
        </mxCell>
        <mxCell id="dejuXrAs5js8NBhIehqD-13" value="" style="group" parent="1" vertex="1" connectable="0">
          <mxGeometry x="350" y="130" width="130" height="80" as="geometry" />
        </mxCell>
        <mxCell id="dejuXrAs5js8NBhIehqD-11" value="" style="html=1;shadow=0;dashed=0;align=center;verticalAlign=middle;shape=mxgraph.arrows2.uTurnArrow;dy=11;arrowHead=43;dx2=25;" parent="dejuXrAs5js8NBhIehqD-13" vertex="1">
          <mxGeometry width="56.875" height="72.72727272727272" as="geometry" />
        </mxCell>
        <mxCell id="dejuXrAs5js8NBhIehqD-12" value="" style="html=1;shadow=0;dashed=0;align=center;verticalAlign=middle;shape=mxgraph.arrows2.uTurnArrow;dy=11;arrowHead=43;dx2=25;direction=west;" parent="dejuXrAs5js8NBhIehqD-13" vertex="1">
          <mxGeometry x="73.125" y="7.272727272727272" width="56.875" height="72.72727272727272" as="geometry" />
        </mxCell>
        <mxCell id="dejuXrAs5js8NBhIehqD-17" value="" style="html=1;shadow=0;dashed=0;align=center;verticalAlign=middle;shape=mxgraph.arrows2.arrow;dy=0.6;dx=40;notch=0;direction=south;" parent="1" vertex="1">
          <mxGeometry x="575" y="226" width="30" height="80" as="geometry" />
        </mxCell>
        <mxCell id="dejuXrAs5js8NBhIehqD-18" value="" style="html=1;shadow=0;dashed=0;align=center;verticalAlign=middle;shape=mxgraph.arrows2.arrow;dy=0.6;dx=40;notch=0;direction=south;" parent="1" vertex="1">
          <mxGeometry x="210" y="229" width="30" height="80" as="geometry" />
        </mxCell>
        <mxCell id="dejuXrAs5js8NBhIehqD-19" value="" style="html=1;shadow=0;dashed=0;align=center;verticalAlign=middle;shape=mxgraph.arrows2.jumpInArrow;dy=15;dx=38;arrowHead=55;fillColor=none;" parent="1" vertex="1">
          <mxGeometry x="360" y="450" width="100" height="100" as="geometry" />
        </mxCell>
      </root>
    </mxGraphModel>
  </diagram>
  <diagram id="sKZQmuqZdGdcLeMNz9dS" name="第 2 页">
    <mxGraphModel dx="1426" dy="711" grid="1" gridSize="10" guides="1" tooltips="1" connect="1" arrows="1" fold="1" page="1" pageScale="1" pageWidth="1100" pageHeight="600" math="0" shadow="0">
      <root>
        <mxCell id="D7yx4ENP2BZrJBxHsv8--0" />
        <mxCell id="D7yx4ENP2BZrJBxHsv8--1" parent="D7yx4ENP2BZrJBxHsv8--0" />
        <mxCell id="DtjIOWPf-d3ihosHFQqy-0" value="" style="group;fontSize=16;" vertex="1" connectable="0" parent="D7yx4ENP2BZrJBxHsv8--1">
          <mxGeometry x="55" y="40" width="990" height="530" as="geometry" />
        </mxCell>
        <mxCell id="D7yx4ENP2BZrJBxHsv8--2" value="&lt;font style=&quot;font-size: 16px&quot;&gt;Pre&lt;/font&gt;" style="text;html=1;align=center;verticalAlign=middle;whiteSpace=wrap;rounded=0;strokeColor=#000000;fillColor=#264653;fontColor=#FFFFFF;fontSize=16;" parent="DtjIOWPf-d3ihosHFQqy-0" vertex="1">
          <mxGeometry y="113.57142857142857" width="170.00188288457917" height="113.57142857142857" as="geometry" />
        </mxCell>
        <mxCell id="D7yx4ENP2BZrJBxHsv8--3" value="&lt;font style=&quot;font-size: 16px&quot;&gt;Module&lt;/font&gt;" style="text;html=1;align=center;verticalAlign=middle;whiteSpace=wrap;rounded=0;strokeColor=#000000;fillColor=#2A9D8F;fontColor=#FFFFFF;fontSize=16;" parent="DtjIOWPf-d3ihosHFQqy-0" vertex="1">
          <mxGeometry x="226.6691771794389" y="113.57142857142857" width="170.00188288457917" height="113.57142857142857" as="geometry" />
        </mxCell>
        <mxCell id="D7yx4ENP2BZrJBxHsv8--5" value="&lt;font style=&quot;font-size: 16px&quot;&gt;Method1&lt;/font&gt;" style="text;html=1;align=center;verticalAlign=middle;whiteSpace=wrap;rounded=0;strokeColor=#000000;fillColor=#E9C46A;fontColor=#FFFFFF;fontSize=16;" parent="DtjIOWPf-d3ihosHFQqy-0" vertex="1">
          <mxGeometry x="453.3383543588778" y="113.57142857142857" width="170.00188288457917" height="113.57142857142857" as="geometry" />
        </mxCell>
        <mxCell id="D7yx4ENP2BZrJBxHsv8--7" value="&lt;font style=&quot;font-size: 16px&quot;&gt;·······&lt;/font&gt;" style="text;html=1;align=center;verticalAlign=middle;whiteSpace=wrap;rounded=0;strokeColor=#000000;fillColor=#F4A261;fontColor=#FFFFFF;fontSize=16;" parent="DtjIOWPf-d3ihosHFQqy-0" vertex="1">
          <mxGeometry x="680.0075315383167" y="113.57142857142857" width="170.00188288457917" height="113.57142857142857" as="geometry" />
        </mxCell>
        <mxCell id="D7yx4ENP2BZrJBxHsv8--8" value="" style="ellipse;whiteSpace=wrap;html=1;aspect=fixed;fontColor=#FFFFFF;strokeColor=#000000;fillColor=#E76F51;fontSize=16;" parent="DtjIOWPf-d3ihosHFQqy-0" vertex="1">
          <mxGeometry x="192.66880060252308" y="162.78571428571428" width="14.16682357371493" height="14.16682357371493" as="geometry" />
        </mxCell>
        <mxCell id="D7yx4ENP2BZrJBxHsv8--11" value="" style="ellipse;whiteSpace=wrap;html=1;aspect=fixed;fontColor=#FFFFFF;strokeColor=#000000;fillColor=#E76F51;fontSize=16;" parent="DtjIOWPf-d3ihosHFQqy-0" vertex="1">
          <mxGeometry x="417.9212954245905" y="162.78571428571428" width="14.16682357371493" height="14.16682357371493" as="geometry" />
        </mxCell>
        <mxCell id="D7yx4ENP2BZrJBxHsv8--12" value="" style="ellipse;whiteSpace=wrap;html=1;aspect=fixed;fontColor=#FFFFFF;strokeColor=#000000;fillColor=#E76F51;fontSize=16;" parent="DtjIOWPf-d3ihosHFQqy-0" vertex="1">
          <mxGeometry x="643.1737902466579" y="160.89285714285714" width="14.16682357371493" height="14.16682357371493" as="geometry" />
        </mxCell>
        <mxCell id="D7yx4ENP2BZrJBxHsv8--13" value="" style="shape=curlyBracket;whiteSpace=wrap;html=1;rounded=1;fontColor=#FFFFFF;strokeColor=#000000;fillColor=#E76F51;direction=south;fontSize=16;" parent="DtjIOWPf-d3ihosHFQqy-0" vertex="1">
          <mxGeometry y="56.785714285714285" width="170.00188288457917" height="37.85714285714286" as="geometry" />
        </mxCell>
        <mxCell id="D7yx4ENP2BZrJBxHsv8--15" value="前缀（必要）" style="text;html=1;strokeColor=none;fillColor=none;align=center;verticalAlign=middle;whiteSpace=wrap;rounded=0;fontSize=16;" parent="DtjIOWPf-d3ihosHFQqy-0" vertex="1">
          <mxGeometry x="42.500470721144794" width="113.33458858971944" height="37.85714285714286" as="geometry" />
        </mxCell>
        <mxCell id="D7yx4ENP2BZrJBxHsv8--16" value="" style="shape=curlyBracket;whiteSpace=wrap;html=1;rounded=1;fontColor=#FFFFFF;strokeColor=#000000;fillColor=#E76F51;direction=south;fontSize=16;" parent="DtjIOWPf-d3ihosHFQqy-0" vertex="1">
          <mxGeometry x="226.6691771794389" y="56.785714285714285" width="170.00188288457917" height="37.85714285714286" as="geometry" />
        </mxCell>
        <mxCell id="D7yx4ENP2BZrJBxHsv8--17" value="模块（必要）" style="text;html=1;strokeColor=none;fillColor=none;align=center;verticalAlign=middle;whiteSpace=wrap;rounded=0;fontSize=16;" parent="DtjIOWPf-d3ihosHFQqy-0" vertex="1">
          <mxGeometry x="255.0028243268688" width="113.33458858971944" height="37.85714285714286" as="geometry" />
        </mxCell>
        <mxCell id="D7yx4ENP2BZrJBxHsv8--18" value="" style="shape=curlyBracket;whiteSpace=wrap;html=1;rounded=1;fontColor=#FFFFFF;strokeColor=#000000;fillColor=#E76F51;direction=south;fontSize=16;" parent="DtjIOWPf-d3ihosHFQqy-0" vertex="1">
          <mxGeometry x="453.3383543588778" y="56.785714285714285" width="170.00188288457917" height="37.85714285714286" as="geometry" />
        </mxCell>
        <mxCell id="D7yx4ENP2BZrJBxHsv8--19" value="函数（必要）" style="text;html=1;strokeColor=none;fillColor=none;align=center;verticalAlign=middle;whiteSpace=wrap;rounded=0;fontSize=16;" parent="DtjIOWPf-d3ihosHFQqy-0" vertex="1">
          <mxGeometry x="481.6720015063077" width="113.33458858971944" height="37.85714285714286" as="geometry" />
        </mxCell>
        <mxCell id="D7yx4ENP2BZrJBxHsv8--20" value="" style="shape=curlyBracket;whiteSpace=wrap;html=1;rounded=1;fontColor=#FFFFFF;strokeColor=#000000;fillColor=#E76F51;direction=south;fontSize=16;" parent="DtjIOWPf-d3ihosHFQqy-0" vertex="1">
          <mxGeometry x="680.0075315383167" y="56.785714285714285" width="170.00188288457917" height="37.85714285714286" as="geometry" />
        </mxCell>
        <mxCell id="D7yx4ENP2BZrJBxHsv8--21" value="函数N（可选）" style="text;html=1;strokeColor=none;fillColor=none;align=center;verticalAlign=middle;whiteSpace=wrap;rounded=0;fontSize=16;" parent="DtjIOWPf-d3ihosHFQqy-0" vertex="1">
          <mxGeometry x="694.1743551120317" width="141.66823573714933" height="37.85714285714286" as="geometry" />
        </mxCell>
        <mxCell id="D7yx4ENP2BZrJBxHsv8--23" value="&lt;h1 style=&quot;font-size: 16px&quot;&gt;&lt;br&gt;&lt;/h1&gt;&lt;h1 style=&quot;font-size: 16px&quot;&gt;约束&lt;/h1&gt;&lt;p style=&quot;font-size: 16px&quot;&gt;跨平台的请求，必须包含3段：前缀、模块、函数。&lt;/p&gt;" style="text;html=1;spacing=5;spacingTop=-20;whiteSpace=wrap;overflow=hidden;rounded=0;fontColor=#000000;strokeColor=#000000;dashed=1;fontSize=16;" parent="DtjIOWPf-d3ihosHFQqy-0" vertex="1">
          <mxGeometry y="300" width="269.17" height="230" as="geometry" />
        </mxCell>
        <mxCell id="D7yx4ENP2BZrJBxHsv8--25" value="例如：" style="text;html=1;strokeColor=none;fillColor=none;align=center;verticalAlign=middle;whiteSpace=wrap;rounded=0;dashed=1;fontColor=#000000;fontSize=16;" parent="DtjIOWPf-d3ihosHFQqy-0" vertex="1">
          <mxGeometry x="325.83694219544344" y="302.8571428571429" width="56.66729429485972" height="37.85714285714286" as="geometry" />
        </mxCell>
        <mxCell id="D7yx4ENP2BZrJBxHsv8--26" value="soa.file.createFile" style="text;html=1;strokeColor=none;fillColor=none;align=center;verticalAlign=middle;whiteSpace=wrap;rounded=0;dashed=1;fontColor=#000000;fontSize=16;" parent="DtjIOWPf-d3ihosHFQqy-0" vertex="1">
          <mxGeometry x="382.50423649030313" y="302.8571428571429" width="184.1687064582941" height="37.85714285714286" as="geometry" />
        </mxCell>
        <mxCell id="D7yx4ENP2BZrJBxHsv8--28" value="SoaFile.createFile()" style="text;html=1;strokeColor=none;fillColor=none;align=center;verticalAlign=middle;whiteSpace=wrap;rounded=0;dashed=1;fontColor=#000000;fontSize=16;" parent="DtjIOWPf-d3ihosHFQqy-0" vertex="1">
          <mxGeometry x="595.0065900960271" y="302.8571428571429" width="206.835624176238" height="37.85714285714286" as="geometry" />
        </mxCell>
        <mxCell id="D7yx4ENP2BZrJBxHsv8--29" value="==" style="text;html=1;strokeColor=none;fillColor=none;align=center;verticalAlign=middle;whiteSpace=wrap;rounded=0;dashed=1;fontColor=#000000;fontSize=16;" parent="DtjIOWPf-d3ihosHFQqy-0" vertex="1">
          <mxGeometry x="552.5061193748824" y="302.8571428571429" width="56.66729429485972" height="37.85714285714286" as="geometry" />
        </mxCell>
        <mxCell id="D7yx4ENP2BZrJBxHsv8--30" value="soa.file.getFileManager.isExist" style="text;html=1;strokeColor=none;fillColor=none;align=center;verticalAlign=middle;whiteSpace=wrap;rounded=0;dashed=1;fontColor=#000000;fontSize=16;" parent="DtjIOWPf-d3ihosHFQqy-0" vertex="1">
          <mxGeometry x="382.50423649030313" y="378.57142857142856" width="283.33647147429866" height="37.85714285714286" as="geometry" />
        </mxCell>
        <mxCell id="D7yx4ENP2BZrJBxHsv8--31" value="SoaFile.getFileManager().isExist()" style="text;html=1;align=center;verticalAlign=middle;resizable=0;points=[];autosize=1;strokeColor=none;fontColor=#000000;fontSize=16;" parent="DtjIOWPf-d3ihosHFQqy-0" vertex="1">
          <mxGeometry x="699.8384014309923" y="387.50142857142856" width="260" height="20" as="geometry" />
        </mxCell>
        <mxCell id="D7yx4ENP2BZrJBxHsv8--32" value="==" style="text;html=1;strokeColor=none;fillColor=none;align=center;verticalAlign=middle;whiteSpace=wrap;rounded=0;dashed=1;fontColor=#000000;fontSize=16;" parent="DtjIOWPf-d3ihosHFQqy-0" vertex="1">
          <mxGeometry x="643.1737902466579" y="378.57142857142856" width="56.66729429485972" height="37.85714285714286" as="geometry" />
        </mxCell>
      </root>
    </mxGraphModel>
  </diagram>
</mxfile>
